<?xml version="1.0" encoding="utf-8"?>
<!-- Generator: Adobe Illustrator 23.0.5, SVG Export Plug-In . SVG Version: 6.00 Build 0)  -->
<svg version="1.1" id="publicdomainvectors.org" xmlns="http://www.w3.org/2000/svg" xmlns:xlink="http://www.w3.org/1999/xlink"
	 x="0px" y="0px" viewBox="0 0 418.33 206.26" style="enable-background:new 0 0 418.33 206.26;" xml:space="preserve">
<g>
	<path d="M416.97,27.03c1.48,3.08,2.15,6.69-1.43,11.24c-5.39,2.15-10.83,4.2-16.32,6.13c-16.77,5.9-33.9,10.8-51.27,14.71
		c-17.37,3.89-34.98,6.81-52.74,8.43c-17.75,1.68-35.64,2-53.47,0.87c17.79,1.62,35.73,1.8,53.58,0.61
		c17.86-1.13,35.65-3.56,53.23-7c17.59-3.44,34.99-7.9,52.08-13.38c4.63-1.49,9.23-3.05,13.81-4.7c0.27,4.23-1.22,8.48-4.34,12
		c-1.74,0.59-3.46,1.25-5.25,1.75c-3.79,1.13-7.55,2.33-11.4,3.29l-5.75,1.52l-5.79,1.35c-15.46,3.56-31.17,6.21-46.96,8.14
		c-15.8,1.92-31.7,3.15-47.63,3.42c-15.93,0.3-31.89-0.19-47.79-1.69c15.84,1.99,31.81,2.99,47.8,3.18
		c15.99,0.22,31.99-0.51,47.94-1.95c15.94-1.45,31.84-3.62,47.59-6.74l5.91-1.18l5.88-1.36c3.75-0.81,7.46-1.85,11.19-2.85
		c-0.24,3.72-1.74,6.8-3.89,9.05c-1.94,0.75-3.96,1.41-6.02,2c-3.31,0.94-6.69,1.75-10.11,2.43c-6.84,1.39-13.79,2.42-20.78,3.23
		c-13.97,1.62-28.08,2.47-42.19,2.79c-14.12,0.32-28.25,0.12-42.37-0.63c-14.12-0.73-28.22-2.05-42.24-4.01
		c13.94,2.45,28.01,4.28,42.13,5.5c14.12,1.25,28.3,1.95,42.49,2.12c14.2,0.17,28.41-0.18,42.61-1.33c7.1-0.58,14.2-1.37,21.28-2.55
		c2.61-0.42,5.22-0.92,7.82-1.51c-0.94,4.68-4.29,8.65-10.41,11.75c-2.42,1.04-5.35,1.7-8.3,2.15c-2.97,0.44-6.01,0.77-9.07,0.94
		c-6.13,0.4-12.33,0.42-18.54,0.29c-12.41-0.27-24.86-1.16-37.27-2.38c-12.41-1.21-24.8-2.77-37.15-4.6
		c-12.35-1.83-24.66-3.97-36.92-6.44c12.14,2.96,24.38,5.59,36.67,7.91c12.29,2.33,24.64,4.38,37.05,6.09
		c12.41,1.71,24.88,3.11,37.43,3.88c6.28,0.37,12.58,0.61,18.94,0.45c1.79-0.03,3.58-0.12,5.38-0.24
		c-3.74,6.79-11.65,11.98-25.83,13.16c-4.95-0.61-9.91-1.45-14.85-2.39c-10.79-2.06-21.53-4.58-32.23-7.26
		c-21.41-5.37-42.67-11.41-63.87-17.65c20.9,7.19,41.88,14.18,63.08,20.52c10.61,3.16,21.27,6.17,32.09,8.75
		c2.24,0.53,4.48,1.03,6.74,1.51c-1.36,6.11-9.86,9.23-23.72,8.88c-8.55-3.5-17.04-7.22-25.5-11.01c-9.02-4.05-18.01-8.18-27-12.33
		c-8.99-4.14-17.97-8.31-27-12.37c8.82,4.5,17.57,9.11,26.34,13.7c8.77,4.59,17.55,9.17,26.37,13.68
		c6.82,3.48,13.67,6.91,20.58,10.23c-4.83,4.22-13.54,5.56-22.7,4.24c-2.55-1.81-5.1-3.62-7.64-5.44
		c-14.87-10.66-29.63-21.48-44.27-32.46c14.03,11.76,28.19,23.37,42.47,34.83c1.68,1.34,3.37,2.68,5.05,4.02
		c-3.69,2.81-10.1,3.83-17.5,2.18c-4.89-5.39-9.76-10.8-14.5-16.32c-2.89-3.39-5.79-6.78-8.56-10.27c-2.81-3.46-5.46-7.04-7.9-10.78
		c2.22,3.87,4.69,7.61,7.31,11.23c2.58,3.65,5.29,7.2,8,10.76c4.02,5.24,8.14,10.4,12.29,15.53c-2.42,2.6-7.85,3.59-13.7,0.41
		c-1.88,0.13-15.65-29.93-17.57-29.81l-0.6-3.2c-5.22,14.99,22.91,68.21,22.49,71.97c-0.27,1.51-2.53,3.42-4.82,3.62l-17.55-42.08
		l14.71,44.63c-0.67,4.6-2.88,8.01-6.88,8.33l-14.93-52.96l11.36,57.72c-1.13,5.04-4.07,8.84-8.9,8.28l-9.56-65.99l4.18,68.79
		c-2.02,1.21-4.12,1.91-6.33,1.88c-1.43-0.02-2.96-0.53-4.55-1.39l-0.4-69.27l-5.22,66.31c-3.5,0.8-7.83-1.36-9.82-7.64l7.94-58.67
		l-12.01,54.13c-3.2-0.71-6.08-3.38-7.85-8.26l12.77-45.88l-15.96,43.29c-3.25-0.26-6.08-2.85-5.93-5.76
		c-2.2-4.08,28.14-58.95,19.39-70.85c-1.92-0.11-15.69,29.95-17.57,29.81c-5.85,3.18-11.28,2.19-13.7-0.41
		c4.15-5.13,8.27-10.29,12.29-15.53c2.71-3.55,5.42-7.11,8-10.76c2.62-3.62,5.09-7.36,7.31-11.23c-2.43,3.74-5.09,7.32-7.9,10.78
		c-2.77,3.49-5.67,6.88-8.56,10.27c-4.75,5.52-9.61,10.93-14.5,16.32c-7.4,1.65-13.81,0.62-17.5-2.18c1.68-1.34,3.37-2.67,5.05-4.02
		c14.29-11.46,28.44-23.07,42.47-34.83c-14.64,10.98-29.41,21.8-44.27,32.46c-2.54,1.82-5.09,3.63-7.64,5.44
		c-9.16,1.33-17.87-0.02-22.7-4.24c6.92-3.32,13.76-6.76,20.59-10.23c8.83-4.5,17.6-9.09,26.37-13.68
		c8.77-4.59,17.53-9.2,26.34-13.7c-9.03,4.05-18.01,8.22-27,12.37c-8.99,4.15-17.98,8.28-27,12.33
		c-8.46,3.79-16.95,7.51-25.49,11.01c-13.85,0.35-22.35-2.77-23.72-8.88c2.25-0.48,4.5-0.99,6.74-1.51
		c10.82-2.58,21.48-5.59,32.09-8.75c21.21-6.34,42.18-13.33,63.08-20.52c-21.2,6.24-42.46,12.28-63.87,17.65
		c-10.7,2.67-21.44,5.19-32.23,7.25c-4.95,0.94-9.91,1.78-14.85,2.39c-14.18-1.18-22.09-6.37-25.83-13.16
		c1.8,0.13,3.59,0.21,5.38,0.24c6.36,0.16,12.66-0.08,18.94-0.45c12.56-0.77,25.03-2.17,37.44-3.88
		c12.41-1.71,24.76-3.76,37.05-6.09c12.29-2.33,24.52-4.95,36.67-7.91c-12.25,2.47-24.56,4.61-36.92,6.44
		c-12.35,1.83-24.74,3.39-37.15,4.6c-12.41,1.21-24.85,2.11-37.27,2.38c-6.2,0.12-12.41,0.11-18.53-0.29
		c-3.07-0.17-6.1-0.5-9.07-0.94c-2.95-0.45-5.88-1.12-8.3-2.15c-6.12-3.1-9.47-7.07-10.41-11.75c2.61,0.58,5.21,1.08,7.82,1.51
		c7.08,1.18,14.18,1.97,21.28,2.55c14.2,1.14,28.42,1.5,42.61,1.33c14.2-0.17,28.37-0.87,42.49-2.12
		c14.12-1.23,28.19-3.05,42.13-5.5c-14.02,1.96-28.12,3.29-42.24,4.01c-14.12,0.75-28.26,0.95-42.37,0.63
		c-14.11-0.32-28.21-1.17-42.19-2.79c-6.98-0.82-13.94-1.84-20.78-3.23c-3.42-0.68-6.8-1.49-10.11-2.43c-2.05-0.58-4.08-1.24-6.02-2
		c-2.16-2.24-3.66-5.32-3.89-9.05c3.72,0.99,7.43,2.04,11.19,2.85l5.88,1.36l5.9,1.18c15.75,3.12,31.64,5.29,47.59,6.74
		c15.94,1.44,31.95,2.17,47.94,1.95c15.99-0.19,31.96-1.19,47.79-3.18c-15.9,1.5-31.86,1.99-47.79,1.69
		c-15.93-0.27-31.84-1.5-47.63-3.42c-15.79-1.93-31.5-4.58-46.96-8.14l-5.79-1.35l-5.75-1.52c-3.85-0.95-7.61-2.16-11.4-3.29
		c-1.78-0.5-3.5-1.15-5.25-1.75c-3.12-3.52-4.61-7.78-4.34-12c4.58,1.64,9.18,3.21,13.81,4.7c17.09,5.48,34.49,9.94,52.08,13.38
		c17.59,3.43,35.37,5.87,53.23,7c17.86,1.19,35.79,1.01,53.58-0.61c-17.83,1.13-35.72,0.81-53.47-0.87
		c-17.75-1.62-35.37-4.53-52.74-8.43C53,52.19,35.86,47.29,19.1,41.39c-5.48-1.93-10.92-3.98-16.32-6.13
		c-3.58-4.54-2.9-8.15-1.43-11.24c14.23,6.12,28.71,11.65,43.44,16.45c10.49,3.42,21.1,6.47,31.8,9.11
		c10.71,2.65,21.53,4.8,32.41,6.51c10.89,1.69,21.84,3,32.83,3.61c10.99,0.65,22,0.76,33,0.33c-11,0.19-21.99-0.18-32.94-1.07
		c-10.95-0.86-21.84-2.41-32.64-4.34c-10.8-1.96-21.52-4.34-32.1-7.21c-10.59-2.87-21.06-6.14-31.4-9.77
		c-15.35-5.39-30.4-11.57-45.15-18.4c-1.49-5.84,0.02-9.59,2.3-11.31c16.75,16.33,55.34,29.31,98.46,35.27
		c-0.98-0.32-1.95-0.64-2.93-0.97c-12.86-4.4-25.42-9.7-37.3-16.29c-5.92-3.31-11.67-6.97-16.99-11.17c-1.34-1.04-2.6-2.18-3.9-3.27
		L38.4,9.76c-0.62-0.58-1.23-1.16-1.79-1.79L34.89,6.1c-0.57-0.63-1.07-1.31-1.6-1.97c-1.1-1.28-1.96-2.75-2.91-4.13
		c1.06,1.31,2,2.7,3.19,3.89c0.58,0.61,1.12,1.25,1.72,1.82l1.83,1.71c0.59,0.58,1.25,1.11,1.9,1.64l1.94,1.59
		c1.36,0.97,2.67,2,4.06,2.92c5.53,3.74,11.42,6.91,17.46,9.72c12.11,5.6,24.79,9.88,37.67,13.25c12.88,3.35,25.97,5.88,39.11,7.34
		c6.57,0.73,13.14,1.2,19.68,1.31c6.36,0.11,12.69-0.13,18.81-0.91c0.29-1.21,0.64-2.39,1.07-3.55c1.56-4.22,4.01-8.01,7.03-11.14
		c3.02-3.15,6.64-5.57,10.45-7.39c-3.51,2.36-6.64,5.22-9.02,8.58c-2.39,3.34-4.07,7.11-4.89,11c-0.76,3.58-0.77,7.26-0.04,10.69
		c0.98,3.9,2.73,7.01,4.72,9.45c0.24,0.26,0.48,0.52,0.74,0.76l-0.05,0.04c3.12,3.5,6.64,5.45,8.6,6.26
		c0.36,0.15,3.75,1.39,4.78,1.69c4.61,1.19,13.4,1.1,18.37,0.17c0.62,0,4.99-2.17,5.32-2.36c1.61-0.9,4.39-2.81,6.96-5.78
		l-0.02-0.02c0.12-0.11,0.23-0.24,0.34-0.36c2.87-3.45,5.4-8.26,5.61-14.54c0.01,0,0.02,0,0.04,0c0.04-1.99-0.15-4.02-0.57-6.01
		c-0.81-3.88-2.49-7.65-4.89-11c-2.38-3.36-5.51-6.23-9.02-8.58c3.81,1.82,7.44,4.24,10.45,7.39c3.02,3.13,5.47,6.92,7.03,11.14
		c0.44,1.18,0.8,2.39,1.09,3.62c5.92,0.72,12.03,0.93,18.17,0.83c6.53-0.11,13.11-0.58,19.68-1.31c13.14-1.46,26.23-3.99,39.11-7.34
		c12.88-3.37,25.56-7.65,37.67-13.25c6.04-2.81,11.93-5.98,17.46-9.72c1.39-0.93,2.71-1.95,4.06-2.92l1.94-1.59
		c0.65-0.53,1.3-1.05,1.9-1.64l1.83-1.71c0.61-0.58,1.14-1.22,1.72-1.82c1.19-1.19,2.14-2.58,3.19-3.89
		c-0.95,1.38-1.8,2.85-2.91,4.13c-0.53,0.65-1.03,1.34-1.6,1.97l-1.72,1.86c-0.56,0.64-1.18,1.21-1.79,1.79l-1.84,1.75
		c-1.3,1.09-2.56,2.22-3.9,3.27c-5.32,4.2-11.07,7.86-16.99,11.17c-11.87,6.59-24.44,11.89-37.3,16.29
		c-5.5,1.87-11.06,3.59-16.67,5.15c48.26-4.71,93.05-18.38,111.58-36.44c2.28,1.72,3.79,5.47,2.3,11.31
		c-14.75,6.83-29.81,13.01-45.15,18.4c-10.34,3.63-20.82,6.9-31.4,9.77c-10.59,2.87-21.31,5.25-32.11,7.21
		c-10.8,1.93-21.69,3.48-32.64,4.33c-10.95,0.89-21.94,1.26-32.94,1.07c10.99,0.44,22,0.32,32.99-0.33
		c11-0.62,21.95-1.92,32.83-3.61c10.88-1.72,21.71-3.87,32.41-6.51c10.71-2.64,21.31-5.69,31.8-9.11
		C388.26,38.68,402.74,33.15,416.97,27.03 M184.78,42.07c-0.55,3.1,1.68,3.72,2.47,2.34c0.76-1.59,2.13-3.76,2.96-5.32
		c1.71-3.22,3.58-6.35,5.68-9.31c-1.89,3.1-9.79,21.17-9.79,21.17c-1.9,4.85,0.98,8.33,2.34,6.76c0,0,8-17.89,9.46-21.04
		c-1.24,3.24-7.73,22.16-7.73,22.16c-0.42,5.41,4.48,7.33,5.77,5.76c0.22-0.81,5.01-18.73,5.58-20.35
		c-0.45,1.66-2.81,18.77-2.67,20.54c0.27,2.51,1.47,3.49,2.25,3.82c2.17,0.9,7.17,1.02,8.15,0.71l1.09-24.72l0.18,24.72
		c0.98,0.31,5.98,0.19,8.15-0.71c0.78-0.32,1.98-1.3,2.25-3.82c0.14-1.77-2.22-18.88-2.67-20.54c0.57,1.63,5.36,19.54,5.58,20.35
		c1.29,1.56,6.19-0.36,5.77-5.76c0,0-6.49-18.92-7.72-22.16c1.47,3.14,9.46,21.04,9.46,21.04c1.36,1.57,4.24-1.91,2.34-6.76
		c0,0-7.9-18.07-9.79-21.17c2.1,2.96,3.97,6.09,5.68,9.31c0.83,1.56,2.2,3.73,2.96,5.32c0.8,1.37,3.02,0.76,2.47-2.34
		c-2.88-11.91-14.3-21.4-20.23-25.51c-1.06-6.38-4.89-11.72-4.89-11.72s-3.82,5.34-4.88,11.72
		C199.09,20.67,187.67,30.16,184.78,42.07"/>
</g>
</svg>
